<svg width="77" height="46" viewBox="0 0 77 46" fill="none" xmlns="http://www.w3.org/2000/svg">
<path d="M1.584 10.072C1.408 10.216 1.224 10.352 1.032 10.48C0.84 10.608 0.616 10.672 0.36 10.672C0.12 10.672 0 10.456 0 10.024C0 9.144 0.408 8.424 1.224 7.864C2.008 7.288 2.952 7 4.056 7C5.16 7 5.968 7.392 6.48 8.176C6.896 8.8 7.104 9.648 7.104 10.72C7.104 11.184 7.016 11.784 6.84 12.52C5.928 16.328 5.464 18.968 5.448 20.44C5.464 21.144 5.76 21.624 6.336 21.88C6.56 21.976 6.824 22.024 7.128 22.024C8.552 22.024 9.896 21.184 11.16 19.504C10.52 17.264 10.2 14.72 10.2 11.872C10.2 10.816 10.448 9.96 10.944 9.304C11.456 8.632 12.28 8.296 13.416 8.296C14.264 8.296 14.904 8.536 15.336 9.016C15.784 9.496 16.008 10.128 16.008 10.912C16.008 12.528 15.584 14.52 14.736 16.888C14.448 17.688 14.112 18.48 13.728 19.264C14.416 21.12 15.328 22.048 16.464 22.048C17.744 22.048 18.864 21.184 19.824 19.456C20.528 18.192 21.104 16.472 21.552 14.296C20.384 14.136 19.456 13.64 18.768 12.808C18.096 11.976 17.76 11.088 17.76 10.144C17.76 9.2 18.056 8.416 18.648 7.792C19.24 7.168 20.048 6.856 21.072 6.856C22.096 6.84 22.864 7.2 23.376 7.936C23.888 8.656 24.144 9.64 24.144 10.888V11.368C24.144 11.544 24.136 11.736 24.12 11.944C24.392 11.816 24.624 11.688 24.816 11.56C25.008 11.416 25.2 11.344 25.392 11.344C25.712 11.344 25.872 11.48 25.872 11.752C25.872 12.28 25.696 12.744 25.344 13.144C25.008 13.544 24.552 13.848 23.976 14.056C23.768 15.928 23.488 17.4 23.136 18.472C22.48 20.536 21.616 22.104 20.544 23.176C19.264 24.424 17.688 25.056 15.816 25.072C14.264 25.072 13 24.04 12.024 21.976C10.392 24.04 8.536 25.072 6.456 25.072C5.032 25.072 3.896 24.72 3.048 24.016C2.216 23.296 1.8 22.168 1.8 20.632C1.8 20.264 2 19.296 2.4 17.728C2.816 16.144 3.144 14.848 3.384 13.84C3.624 12.816 3.744 12.008 3.744 11.416C3.744 10.12 3.416 9.472 2.76 9.472C2.536 9.472 2.328 9.536 2.136 9.664C1.96 9.792 1.776 9.928 1.584 10.072ZM13.224 10.312C12.808 10.312 12.6 10.96 12.6 12.256C12.6 13.552 12.712 14.856 12.936 16.168C13.544 14.584 13.848 13.048 13.848 11.56C13.848 11.24 13.792 10.952 13.68 10.696C13.584 10.44 13.432 10.312 13.224 10.312ZM21.336 8.944C21 8.944 20.832 9.208 20.832 9.736C20.832 10.696 21.208 11.392 21.96 11.824C22.024 11.216 22.056 10.808 22.056 10.6C22.056 10.152 22 9.792 21.888 9.52C21.76 9.136 21.576 8.944 21.336 8.944ZM40.1357 19.336C40.4237 19.336 40.5677 19.704 40.5677 20.44C40.5677 20.84 40.3997 21.328 40.0637 21.904C39.7277 22.464 39.2877 22.984 38.7437 23.464C38.2157 23.928 37.6237 24.312 36.9677 24.616C36.3117 24.92 35.6717 25.072 35.0477 25.072C34.1997 25.072 33.6317 24.328 33.3437 22.84C32.9277 23.528 32.3837 24.096 31.7117 24.544C31.0397 24.976 30.1357 25.192 28.9997 25.192C27.8797 25.192 26.9757 24.84 26.2877 24.136C25.5997 23.432 25.2637 22.576 25.2797 21.568C25.2797 18.848 26.1837 16.704 27.9917 15.136C28.7597 14.48 29.4717 14.048 30.1277 13.84C30.7997 13.632 31.5037 13.528 32.2397 13.528C32.9757 13.528 33.5757 13.656 34.0397 13.912C34.2637 13.448 34.5197 13.216 34.8077 13.216C35.3677 13.216 35.8957 13.464 36.3917 13.96C36.9037 14.44 37.1597 14.896 37.1597 15.328C36.9357 15.856 36.6077 16.488 36.1757 17.224C36.0477 17.96 35.9837 18.992 35.9837 20.32C35.9837 21.648 36.1517 22.312 36.4877 22.312C36.9037 22.312 37.9117 21.48 39.5117 19.816C39.7997 19.496 40.0077 19.336 40.1357 19.336ZM28.8077 20.776C28.8077 22.008 29.2637 22.624 30.1757 22.624C31.1517 22.608 31.9597 22.088 32.5997 21.064C32.8237 20.712 33.0077 20.28 33.1517 19.768C33.1517 17.976 33.3117 16.44 33.6317 15.16C32.3357 15.416 31.2077 16.04 30.2477 17.032C29.2877 18.024 28.8077 19.272 28.8077 20.776ZM45.8244 23.248C45.0244 24.352 43.9524 24.904 42.6084 24.904C41.5204 24.904 40.6484 24.68 39.9924 24.232C39.3524 23.768 39.0324 23.04 39.0324 22.048C39.0324 21.632 39.0884 21.248 39.2004 20.896C39.3284 20.544 39.5284 20.112 39.8004 19.6L40.4964 13.912C40.9924 13.528 41.6644 13.336 42.5124 13.336C43.2324 13.336 43.6404 13.816 43.7364 14.776C43.7684 15.064 43.7844 15.408 43.7844 15.808C43.7844 16.192 43.7204 16.6 43.5924 17.032C42.9524 19.24 42.6404 20.72 42.6564 21.472C42.6564 22.048 42.9924 22.336 43.6644 22.336C44.3364 22.336 44.8324 22.12 45.1524 21.688C45.4724 21.256 45.7444 20.72 45.9684 20.08C46.3844 18.304 46.7684 16.84 47.1204 15.688C47.4884 14.536 47.7204 13.848 47.8164 13.624C47.9764 13.24 48.2804 13.04 48.7284 13.024C49.1764 13.04 49.6004 13.36 50.0004 13.984C50.4004 14.592 50.6004 15.064 50.6004 15.4C50.5684 16.52 49.8724 19.344 48.5124 23.872C49.5524 23.056 50.5844 22.056 51.6084 20.872C51.9604 20.456 52.2564 20.112 52.4964 19.84C52.7364 19.552 52.9284 19.408 53.0724 19.408C53.2964 19.408 53.4084 19.664 53.4084 20.176C53.4084 21.184 52.8404 22.36 51.7044 23.704C50.5844 25.048 49.2084 26.096 47.5764 26.848C47.3844 27.488 47.1764 28.096 46.9524 28.672C46.7284 29.248 46.4404 29.752 46.0884 30.184C45.3204 31.112 44.1524 31.576 42.5844 31.576C41.5284 31.576 40.6244 31.272 39.8724 30.664C39.1364 30.056 38.7684 29.296 38.7684 28.384C38.7684 27.872 38.9364 27.464 39.2724 27.16C39.6244 26.856 40.0964 26.6 40.6884 26.392C41.2964 26.2 42.0004 26.024 42.8004 25.864C43.6004 25.72 44.4564 25.536 45.3684 25.312C45.5924 24.352 45.7444 23.664 45.8244 23.248ZM42.5604 29.728C43.3124 29.728 43.9924 29.072 44.6004 27.76C44.0244 27.872 43.5124 27.952 43.0644 28C42.6164 28.064 42.2324 28.12 41.9124 28.168C41.2724 28.264 40.9604 28.432 40.9764 28.672C40.9764 28.976 41.1524 29.232 41.5044 29.44C41.8724 29.648 42.2244 29.744 42.5604 29.728ZM55.4042 13.024C55.9802 13.024 56.5242 13.576 57.0362 14.68C57.7882 13.896 58.7162 13.504 59.8202 13.504C60.9402 13.504 61.7802 13.752 62.3402 14.248C62.9002 14.728 63.1802 15.416 63.1802 16.312C63.1802 17.192 63.0602 18.088 62.8202 19C62.5962 19.912 62.4282 20.568 62.3162 20.968C62.2202 21.352 62.1722 21.672 62.1722 21.928C62.1722 22.184 62.2602 22.312 62.4362 22.312C62.6762 22.312 62.9722 22.16 63.3242 21.856C63.6762 21.552 64.0282 21.224 64.3802 20.872C64.7322 20.504 65.0522 20.168 65.3402 19.864C65.6442 19.56 65.8522 19.408 65.9642 19.408C66.1882 19.408 66.3002 19.68 66.3002 20.224C66.3002 21.344 65.7482 22.424 64.6442 23.464C62.7882 24.552 61.6042 25.096 61.0922 25.096C61.0442 25.096 61.0122 25.088 60.9962 25.072C59.7162 25.072 59.0762 24.048 59.0762 22C59.0762 21.12 59.1562 20.312 59.3162 19.576C59.4922 18.84 59.6202 18.304 59.7002 17.968C59.7802 17.632 59.8202 17.288 59.8202 16.936C59.8202 16.36 59.4842 16.072 58.8122 16.072C58.1562 16.072 57.5242 16.568 56.9162 17.56C56.3242 18.536 55.9242 19.552 55.7162 20.608V20.776C55.7162 21.32 55.7962 21.88 55.9562 22.456C56.1322 23.032 56.2202 23.432 56.2202 23.656C56.2202 24.2 55.5402 24.736 54.1802 25.264C53.9722 25.344 53.7882 25.384 53.6282 25.384C53.2282 25.384 52.9482 25.176 52.7882 24.76C52.6442 24.344 52.5722 23.696 52.5722 22.816C52.5722 20.544 52.6602 18.904 52.8362 17.896C53.0762 16.392 53.6202 14.992 54.4682 13.696C54.7562 13.248 55.0682 13.024 55.4042 13.024ZM70.6948 22.384C71.9428 22.384 73.1508 21.888 74.3188 20.896C74.7508 20.528 75.1028 20.192 75.3748 19.888C75.6468 19.568 75.8548 19.408 75.9988 19.408C76.2228 19.408 76.3348 19.632 76.3348 20.08C76.3348 20.528 76.2148 21.032 75.9748 21.592C75.7348 22.136 75.3348 22.672 74.7748 23.2C73.3988 24.496 71.5108 25.144 69.1108 25.144C67.2068 25.144 65.9108 24.456 65.2228 23.08C64.9828 22.6 64.8628 21.912 64.8628 21.016C64.8628 20.12 65.0388 19.192 65.3908 18.232C65.7428 17.256 66.2068 16.416 66.7828 15.712C67.3748 15.008 68.0548 14.464 68.8228 14.08C69.5908 13.68 70.4068 13.48 71.2708 13.48C72.1508 13.48 72.8228 13.696 73.2868 14.128C73.7668 14.56 74.0068 15.12 74.0068 15.808C74.0068 16.496 73.8308 17.064 73.4788 17.512C73.1428 17.944 72.7028 18.312 72.1588 18.616C71.6148 18.904 71.0068 19.168 70.3348 19.408C69.6788 19.632 69.0308 19.888 68.3908 20.176V20.776C68.4068 21.352 68.6468 21.76 69.1108 22C69.5748 22.24 70.1028 22.368 70.6948 22.384ZM70.2868 15.616C69.4548 15.616 68.8788 16.584 68.5588 18.52C68.8948 18.296 69.2068 18.096 69.4948 17.92C69.7988 17.744 70.0628 17.576 70.2868 17.416C70.7668 17.064 71.0148 16.664 71.0308 16.216C71.0308 15.816 70.7828 15.616 70.2868 15.616Z" fill="black"/>
<path d="M17.156 35.402L14.474 44H13.43L11.252 37.442C11.232 37.378 11.212 37.31 11.192 37.238C11.176 37.166 11.158 37.09 11.138 37.01C11.118 37.09 11.098 37.166 11.078 37.238C11.058 37.31 11.038 37.378 11.018 37.442L8.82802 44H7.78402L5.10202 35.402H6.06802C6.17202 35.402 6.25802 35.428 6.32602 35.48C6.39802 35.532 6.44402 35.598 6.46402 35.678L8.24002 41.654C8.26802 41.762 8.29402 41.878 8.31802 42.002C8.34602 42.126 8.37202 42.258 8.39602 42.398C8.42402 42.258 8.45202 42.126 8.48002 42.002C8.51202 41.874 8.54602 41.758 8.58202 41.654L10.604 35.678C10.628 35.61 10.674 35.548 10.742 35.492C10.814 35.432 10.9 35.402 11 35.402H11.336C11.44 35.402 11.524 35.428 11.588 35.48C11.652 35.532 11.7 35.598 11.732 35.678L13.748 41.654C13.784 41.758 13.816 41.87 13.844 41.99C13.876 42.11 13.906 42.236 13.934 42.368C13.954 42.236 13.976 42.11 14 41.99C14.024 41.87 14.05 41.758 14.078 41.654L15.86 35.678C15.88 35.606 15.924 35.542 15.992 35.486C16.064 35.43 16.15 35.402 16.25 35.402H17.156ZM20.7982 41.264C20.3062 41.28 19.8862 41.32 19.5382 41.384C19.1942 41.444 18.9122 41.524 18.6922 41.624C18.4762 41.724 18.3182 41.842 18.2182 41.978C18.1222 42.114 18.0742 42.266 18.0742 42.434C18.0742 42.594 18.1002 42.732 18.1522 42.848C18.2042 42.964 18.2742 43.06 18.3622 43.136C18.4542 43.208 18.5602 43.262 18.6802 43.298C18.8042 43.33 18.9362 43.346 19.0762 43.346C19.2642 43.346 19.4362 43.328 19.5922 43.292C19.7482 43.252 19.8942 43.196 20.0302 43.124C20.1702 43.052 20.3022 42.966 20.4262 42.866C20.5542 42.766 20.6782 42.652 20.7982 42.524V41.264ZM17.3482 38.78C17.6842 38.456 18.0462 38.214 18.4342 38.054C18.8222 37.894 19.2522 37.814 19.7242 37.814C20.0642 37.814 20.3662 37.87 20.6302 37.982C20.8942 38.094 21.1162 38.25 21.2962 38.45C21.4762 38.65 21.6122 38.892 21.7042 39.176C21.7962 39.46 21.8422 39.772 21.8422 40.112V44H21.3682C21.2642 44 21.1842 43.984 21.1282 43.952C21.0722 43.916 21.0282 43.848 20.9962 43.748L20.8762 43.172C20.7162 43.32 20.5602 43.452 20.4082 43.568C20.2562 43.68 20.0962 43.776 19.9282 43.856C19.7602 43.932 19.5802 43.99 19.3882 44.03C19.2002 44.074 18.9902 44.096 18.7582 44.096C18.5222 44.096 18.3002 44.064 18.0922 44C17.8842 43.932 17.7022 43.832 17.5462 43.7C17.3942 43.568 17.2722 43.402 17.1802 43.202C17.0922 42.998 17.0482 42.758 17.0482 42.482C17.0482 42.242 17.1142 42.012 17.2462 41.792C17.3782 41.568 17.5922 41.37 17.8882 41.198C18.1842 41.026 18.5702 40.886 19.0462 40.778C19.5222 40.666 20.1062 40.602 20.7982 40.586V40.112C20.7982 39.64 20.6962 39.284 20.4922 39.044C20.2882 38.8 19.9902 38.678 19.5982 38.678C19.3342 38.678 19.1122 38.712 18.9322 38.78C18.7562 38.844 18.6022 38.918 18.4702 39.002C18.3422 39.082 18.2302 39.156 18.1342 39.224C18.0422 39.288 17.9502 39.32 17.8582 39.32C17.7862 39.32 17.7242 39.302 17.6722 39.266C17.6202 39.226 17.5762 39.178 17.5402 39.122L17.3482 38.78ZM25.253 44.096C24.773 44.096 24.403 43.962 24.143 43.694C23.887 43.426 23.759 43.04 23.759 42.536V38.816H23.027C22.963 38.816 22.909 38.798 22.865 38.762C22.821 38.722 22.799 38.662 22.799 38.582V38.156L23.795 38.03L24.041 36.152C24.053 36.092 24.079 36.044 24.119 36.008C24.163 35.968 24.219 35.948 24.287 35.948H24.827V38.042H26.585V38.816H24.827V42.464C24.827 42.72 24.889 42.91 25.013 43.034C25.137 43.158 25.297 43.22 25.493 43.22C25.605 43.22 25.701 43.206 25.781 43.178C25.865 43.146 25.937 43.112 25.997 43.076C26.057 43.04 26.107 43.008 26.147 42.98C26.191 42.948 26.229 42.932 26.261 42.932C26.317 42.932 26.367 42.966 26.411 43.034L26.723 43.544C26.539 43.716 26.317 43.852 26.057 43.952C25.797 44.048 25.529 44.096 25.253 44.096ZM31.8826 39.002C31.8506 39.046 31.8186 39.08 31.7866 39.104C31.7546 39.128 31.7106 39.14 31.6546 39.14C31.5946 39.14 31.5286 39.116 31.4566 39.068C31.3846 39.016 31.2946 38.96 31.1866 38.9C31.0826 38.84 30.9526 38.786 30.7966 38.738C30.6446 38.686 30.4566 38.66 30.2326 38.66C29.9326 38.66 29.6686 38.714 29.4406 38.822C29.2126 38.926 29.0206 39.078 28.8646 39.278C28.7126 39.478 28.5966 39.72 28.5166 40.004C28.4406 40.288 28.4026 40.606 28.4026 40.958C28.4026 41.326 28.4446 41.654 28.5286 41.942C28.6126 42.226 28.7306 42.466 28.8826 42.662C29.0386 42.854 29.2246 43.002 29.4406 43.106C29.6606 43.206 29.9066 43.256 30.1786 43.256C30.4386 43.256 30.6526 43.226 30.8206 43.166C30.9886 43.102 31.1266 43.032 31.2346 42.956C31.3466 42.88 31.4386 42.812 31.5106 42.752C31.5866 42.688 31.6606 42.656 31.7326 42.656C31.8206 42.656 31.8886 42.69 31.9366 42.758L32.2366 43.148C32.1046 43.312 31.9546 43.452 31.7866 43.568C31.6186 43.684 31.4366 43.782 31.2406 43.862C31.0486 43.938 30.8466 43.994 30.6346 44.03C30.4226 44.066 30.2066 44.084 29.9866 44.084C29.6066 44.084 29.2526 44.014 28.9246 43.874C28.6006 43.734 28.3186 43.532 28.0786 43.268C27.8386 43 27.6506 42.672 27.5146 42.284C27.3786 41.896 27.3106 41.454 27.3106 40.958C27.3106 40.506 27.3726 40.088 27.4966 39.704C27.6246 39.32 27.8086 38.99 28.0486 38.714C28.2926 38.434 28.5906 38.216 28.9426 38.06C29.2986 37.904 29.7066 37.826 30.1666 37.826C30.5946 37.826 30.9706 37.896 31.2946 38.036C31.6226 38.172 31.9126 38.366 32.1646 38.618L31.8826 39.002ZM34.4571 38.732C34.7171 38.456 35.0051 38.236 35.3211 38.072C35.6371 37.908 36.0011 37.826 36.4131 37.826C36.7451 37.826 37.0371 37.882 37.2891 37.994C37.5451 38.102 37.7571 38.258 37.9251 38.462C38.0971 38.662 38.2271 38.904 38.3151 39.188C38.4031 39.472 38.4471 39.786 38.4471 40.13V44H37.3731V40.13C37.3731 39.67 37.2671 39.314 37.0551 39.062C36.8471 38.806 36.5291 38.678 36.1011 38.678C35.7851 38.678 35.4891 38.754 35.2131 38.906C34.9411 39.058 34.6891 39.264 34.4571 39.524V44H33.3831V35.162H34.4571V38.732ZM47.7948 36.746C47.7588 36.806 47.7188 36.852 47.6748 36.884C47.6348 36.912 47.5848 36.926 47.5248 36.926C47.4568 36.926 47.3768 36.892 47.2848 36.824C47.1928 36.756 47.0768 36.682 46.9368 36.602C46.8008 36.518 46.6348 36.442 46.4388 36.374C46.2468 36.306 46.0128 36.272 45.7368 36.272C45.4768 36.272 45.2468 36.308 45.0468 36.38C44.8508 36.448 44.6848 36.542 44.5488 36.662C44.4168 36.782 44.3168 36.924 44.2488 37.088C44.1808 37.248 44.1468 37.422 44.1468 37.61C44.1468 37.85 44.2048 38.05 44.3208 38.21C44.4408 38.366 44.5968 38.5 44.7888 38.612C44.9848 38.724 45.2048 38.822 45.4488 38.906C45.6968 38.986 45.9488 39.07 46.2048 39.158C46.4648 39.246 46.7168 39.346 46.9608 39.458C47.2088 39.566 47.4288 39.704 47.6208 39.872C47.8168 40.04 47.9728 40.246 48.0888 40.49C48.2088 40.734 48.2688 41.034 48.2688 41.39C48.2688 41.766 48.2048 42.12 48.0768 42.452C47.9488 42.78 47.7608 43.066 47.5128 43.31C47.2688 43.554 46.9668 43.746 46.6068 43.886C46.2508 44.026 45.8448 44.096 45.3888 44.096C44.8288 44.096 44.3208 43.996 43.8648 43.796C43.4088 43.592 43.0188 43.318 42.6948 42.974L43.0308 42.422C43.0628 42.378 43.1008 42.342 43.1448 42.314C43.1928 42.282 43.2448 42.266 43.3008 42.266C43.3528 42.266 43.4108 42.288 43.4748 42.332C43.5428 42.372 43.6188 42.424 43.7028 42.488C43.7868 42.552 43.8828 42.622 43.9908 42.698C44.0988 42.774 44.2208 42.844 44.3568 42.908C44.4968 42.972 44.6548 43.026 44.8308 43.07C45.0068 43.11 45.2048 43.13 45.4248 43.13C45.7008 43.13 45.9468 43.092 46.1628 43.016C46.3788 42.94 46.5608 42.834 46.7088 42.698C46.8608 42.558 46.9768 42.392 47.0568 42.2C47.1368 42.008 47.1768 41.794 47.1768 41.558C47.1768 41.298 47.1168 41.086 46.9968 40.922C46.8808 40.754 46.7268 40.614 46.5348 40.502C46.3428 40.39 46.1228 40.296 45.8748 40.22C45.6268 40.14 45.3748 40.06 45.1188 39.98C44.8628 39.896 44.6108 39.8 44.3628 39.692C44.1148 39.584 43.8948 39.444 43.7028 39.272C43.5108 39.1 43.3548 38.886 43.2348 38.63C43.1188 38.37 43.0608 38.05 43.0608 37.67C43.0608 37.366 43.1188 37.072 43.2348 36.788C43.3548 36.504 43.5268 36.252 43.7508 36.032C43.9788 35.812 44.2568 35.636 44.5848 35.504C44.9168 35.372 45.2968 35.306 45.7248 35.306C46.2048 35.306 46.6408 35.382 47.0328 35.534C47.4288 35.686 47.7768 35.906 48.0768 36.194L47.7948 36.746ZM51.2569 44.096C50.7769 44.096 50.4069 43.962 50.1469 43.694C49.8909 43.426 49.7629 43.04 49.7629 42.536V38.816H49.0309C48.9669 38.816 48.9129 38.798 48.8689 38.762C48.8249 38.722 48.8029 38.662 48.8029 38.582V38.156L49.7989 38.03L50.0449 36.152C50.0569 36.092 50.0829 36.044 50.1229 36.008C50.1669 35.968 50.2229 35.948 50.2909 35.948H50.8309V38.042H52.5889V38.816H50.8309V42.464C50.8309 42.72 50.8929 42.91 51.0169 43.034C51.1409 43.158 51.3009 43.22 51.4969 43.22C51.6089 43.22 51.7049 43.206 51.7849 43.178C51.8689 43.146 51.9409 43.112 52.0009 43.076C52.0609 43.04 52.1109 43.008 52.1509 42.98C52.1949 42.948 52.2329 42.932 52.2649 42.932C52.3209 42.932 52.3709 42.966 52.4149 43.034L52.7269 43.544C52.5429 43.716 52.3209 43.852 52.0609 43.952C51.8009 44.048 51.5329 44.096 51.2569 44.096ZM56.2185 37.826C56.6625 37.826 57.0625 37.9 57.4185 38.048C57.7745 38.196 58.0785 38.406 58.3305 38.678C58.5825 38.95 58.7745 39.28 58.9065 39.668C59.0425 40.052 59.1105 40.482 59.1105 40.958C59.1105 41.438 59.0425 41.87 58.9065 42.254C58.7745 42.638 58.5825 42.966 58.3305 43.238C58.0785 43.51 57.7745 43.72 57.4185 43.868C57.0625 44.012 56.6625 44.084 56.2185 44.084C55.7705 44.084 55.3665 44.012 55.0065 43.868C54.6505 43.72 54.3465 43.51 54.0945 43.238C53.8425 42.966 53.6485 42.638 53.5125 42.254C53.3805 41.87 53.3145 41.438 53.3145 40.958C53.3145 40.482 53.3805 40.052 53.5125 39.668C53.6485 39.28 53.8425 38.95 54.0945 38.678C54.3465 38.406 54.6505 38.196 55.0065 38.048C55.3665 37.9 55.7705 37.826 56.2185 37.826ZM56.2185 43.25C56.8185 43.25 57.2665 43.05 57.5625 42.65C57.8585 42.246 58.0065 41.684 58.0065 40.964C58.0065 40.24 57.8585 39.676 57.5625 39.272C57.2665 38.868 56.8185 38.666 56.2185 38.666C55.9145 38.666 55.6485 38.718 55.4205 38.822C55.1965 38.926 55.0085 39.076 54.8565 39.272C54.7085 39.468 54.5965 39.71 54.5205 39.998C54.4485 40.282 54.4125 40.604 54.4125 40.964C54.4125 41.684 54.5605 42.246 54.8565 42.65C55.1565 43.05 55.6105 43.25 56.2185 43.25ZM61.4791 39.14C61.6711 38.724 61.9071 38.4 62.1871 38.168C62.4671 37.932 62.8091 37.814 63.2131 37.814C63.3411 37.814 63.4631 37.828 63.5791 37.856C63.6991 37.884 63.8051 37.928 63.8971 37.988L63.8191 38.786C63.7951 38.886 63.7351 38.936 63.6391 38.936C63.5831 38.936 63.5011 38.924 63.3931 38.9C63.2851 38.876 63.1631 38.864 63.0271 38.864C62.8351 38.864 62.6631 38.892 62.5111 38.948C62.3631 39.004 62.2291 39.088 62.1091 39.2C61.9931 39.308 61.8871 39.444 61.7911 39.608C61.6991 39.768 61.6151 39.952 61.5391 40.16V44H60.4651V37.922H61.0771C61.1931 37.922 61.2731 37.944 61.3171 37.988C61.3611 38.032 61.3911 38.108 61.4071 38.216L61.4791 39.14ZM68.6581 40.298C68.6581 40.05 68.6221 39.824 68.5501 39.62C68.4821 39.412 68.3801 39.234 68.2441 39.086C68.1121 38.934 67.9501 38.818 67.7581 38.738C67.5661 38.654 67.3481 38.612 67.1041 38.612C66.5921 38.612 66.1861 38.762 65.8861 39.062C65.5901 39.358 65.4061 39.77 65.3341 40.298H68.6581ZM69.5221 43.148C69.3901 43.308 69.2321 43.448 69.0481 43.568C68.8641 43.684 68.6661 43.78 68.4541 43.856C68.2461 43.932 68.0301 43.988 67.8061 44.024C67.5821 44.064 67.3601 44.084 67.1401 44.084C66.7201 44.084 66.3321 44.014 65.9761 43.874C65.6241 43.73 65.3181 43.522 65.0581 43.25C64.8021 42.974 64.6021 42.634 64.4581 42.23C64.3141 41.826 64.2421 41.362 64.2421 40.838C64.2421 40.414 64.3061 40.018 64.4341 39.65C64.5661 39.282 64.7541 38.964 64.9981 38.696C65.2421 38.424 65.5401 38.212 65.8921 38.06C66.2441 37.904 66.6401 37.826 67.0801 37.826C67.4441 37.826 67.7801 37.888 68.0881 38.012C68.4001 38.132 68.6681 38.308 68.8921 38.54C69.1201 38.768 69.2981 39.052 69.4261 39.392C69.5541 39.728 69.6181 40.112 69.6181 40.544C69.6181 40.712 69.6001 40.824 69.5641 40.88C69.5281 40.936 69.4601 40.964 69.3601 40.964H65.2981C65.3101 41.348 65.3621 41.682 65.4541 41.966C65.5501 42.25 65.6821 42.488 65.8501 42.68C66.0181 42.868 66.2181 43.01 66.4501 43.106C66.6821 43.198 66.9421 43.244 67.2301 43.244C67.4981 43.244 67.7281 43.214 67.9201 43.154C68.1161 43.09 68.2841 43.022 68.4241 42.95C68.5641 42.878 68.6801 42.812 68.7721 42.752C68.8681 42.688 68.9501 42.656 69.0181 42.656C69.1061 42.656 69.1741 42.69 69.2221 42.758L69.5221 43.148Z" fill="black"/>
</svg>
